<?xml version="1.0" standalone="no"?>
<!DOCTYPE svg PUBLIC "-//W3C//DTD SVG 1.1//EN"
"http://www.w3.org/Graphics/SVG/1.1/DTD/svg11.dtd">

<svg width="294" height="154" view_box="0 0 294 154" xmlns="http://www.w3.org/2000/svg" xmlns:link="http://www.w3.org/1999/xlink">\n\n<desc>Généré par Mocodo 2.3.7 le Mon, 12 Jul 2021 01:53:00</desc>

<rect id="frame" x="0" y="0" width="294" height="154" fill="#f7f7f7" stroke="#808080" stroke-width="1" stroke-dasharray="2,2"></rect>

<!-- Association is a -->
<line x1="59" y1="77" x2="159" y2="77" stroke="#d6604d" stroke-width="2"></line>
<text x="114" y="94.0" fill="#2166ac" font-family="Verdana" font-size="12">1,1</text>
<line x1="247" y1="77" x2="159" y2="77" stroke="#d6604d" stroke-width="2"></line>
<text x="182" y="94.0" fill="#2166ac" font-family="Verdana" font-size="12">0,N</text>
<g id="association-is a">
	<path d="M 163 52 a 14 14 90 0 1 14 14 V 77 h -36 V 66 a 14 14 90 0 1 14 -14" fill="#f4a582" stroke="#f4a582" stroke-width="0"></path>
	<path d="M 177 77.0 v 11 a 14 14 90 0 1 -14 14 H 155 a 14 14 90 0 1 -14 -14 V 77.0 H 36" fill="#fddbc7" stroke="#fddbc7" stroke-width="0"></path>
	<rect x="141" y="52" width="36" height="50" fill="none" rx="14" stroke="#d6604d" stroke-width="2"></rect>
	<line x1="141" y1="77" x2="177" y2="77" stroke="#d6604d" stroke-width="1"></line>
	<text x="148" y="69.7" fill="#000000" font-family="Verdana" font-size="12">is a</text>
</g>

<!-- Entity TYPE -->
<g id="entity-TYPE">
	<g id="frame-TYPE">
		<rect x="209" y="26" width="76" height="25" fill="#92c5de" stroke="#92c5de" stroke-width="0"></rect>
		<rect x="209" y="51.0" width="76" height="77" fill="#d1e5f0" stroke="#d1e5f0" stroke-width="0"></rect>
		<rect x="209" y="26" width="76" height="102" fill="none" stroke="#4393c3" stroke-width="2"></rect>
		<line x1="209" y1="51" x2="285" y2="51" stroke="#4393c3" stroke-width="1"></line>
	</g>
	<text x="231" y="43.7" fill="#000000" font-family="Verdana" font-size="12">TYPE</text>
	<text x="214" y="68.7" fill="#000000" font-family="Verdana" font-size="12">type code</text>
	<line x1="214" y1="71" x2="274" y2="71" stroke="#000000" stroke-width="1"></line>
	<text x="214" y="85.8" fill="#000000" font-family="Verdana" font-size="12">name</text>
	<text x="214" y="102.8" fill="#000000" font-family="Verdana" font-size="12">created at</text>
	<text x="214" y="119.8" fill="#000000" font-family="Verdana" font-size="12">updated at</text>
</g>

<!-- Entity CHARACTER -->
<g id="entity-CHARACTER">
	<g id="frame-CHARACTER">
		<rect x="9" y="9" width="100" height="25" fill="#92c5de" stroke="#92c5de" stroke-width="0"></rect>
		<rect x="9" y="34.0" width="100" height="111" fill="#d1e5f0" stroke="#d1e5f0" stroke-width="0"></rect>
		<rect x="9" y="9" width="100" height="136" fill="none" stroke="#4393c3" stroke-width="2"></rect>
		<line x1="9" y1="34" x2="109" y2="34" stroke="#4393c3" stroke-width="1"></line>
	</g>
	<text x="21" y="26.7" fill="#000000" font-family="Verdana" font-size="12">CHARACTER</text>
	<text x="14" y="51.7" fill="#000000" font-family="Verdana" font-size="12">character code</text>
	<line x1="14" y1="54" x2="104" y2="54" stroke="#000000" stroke-width="1"></line>
	<text x="14" y="68.7" fill="#000000" font-family="Verdana" font-size="12">name</text>
	<text x="14" y="85.8" fill="#000000" font-family="Verdana" font-size="12">description</text>
	<text x="14" y="102.8" fill="#000000" font-family="Verdana" font-size="12">picture</text>
	<text x="14" y="119.8" fill="#000000" font-family="Verdana" font-size="12">created at</text>
	<text x="14" y="136.8" fill="#000000" font-family="Verdana" font-size="12">updated at</text>
</g>
</svg>